<?xml version="1.0" encoding="UTF-8" standalone="no"?>
<!-- Generator: Adobe Illustrator 16.0.0, SVG Export Plug-In . SVG Version: 6.00 Build 0)  -->

<svg
   xmlns:dc="http://purl.org/dc/elements/1.1/"
   xmlns:cc="http://creativecommons.org/ns#"
   xmlns:rdf="http://www.w3.org/1999/02/22-rdf-syntax-ns#"
   xmlns:svg="http://www.w3.org/2000/svg"
   xmlns="http://www.w3.org/2000/svg"
   xmlns:sodipodi="http://sodipodi.sourceforge.net/DTD/sodipodi-0.dtd"
   xmlns:inkscape="http://www.inkscape.org/namespaces/inkscape"
   version="1.1"
   id="Capa_1"
   x="0px"
   y="0px"
   width="200"
   height="200"
   viewBox="0 0 200 200"
   xml:space="preserve"
   inkscape:version="0.48.5 r10040"
   sodipodi:docname="ashot.svg"><metadata
     id="metadata3940"><rdf:RDF><cc:Work
         rdf:about=""><dc:format>image/svg+xml</dc:format><dc:type
           rdf:resource="http://purl.org/dc/dcmitype/StillImage" /></cc:Work></rdf:RDF></metadata><defs
     id="defs3938" /><sodipodi:namedview
     pagecolor="#ffffff"
     bordercolor="#666666"
     borderopacity="1"
     objecttolerance="10"
     gridtolerance="10"
     guidetolerance="10"
     inkscape:pageopacity="0"
     inkscape:pageshadow="2"
     inkscape:window-width="1440"
     inkscape:window-height="785"
     id="namedview3936"
     showgrid="false"
     inkscape:zoom="2.89"
     inkscape:cx="100"
     inkscape:cy="100"
     inkscape:window-x="0"
     inkscape:window-y="0"
     inkscape:window-maximized="1"
     inkscape:current-layer="Capa_1" /><g
     id="g3902"
     transform="matrix(0.18672606,0,0,0.18672606,100.04307,49.964144)"
     style="fill:#aa0000"><path
       d="m 433.109,188.146 c -3.614,-3.617 -7.898,-5.426 -12.848,-5.426 H 379.435 C 372.385,152.076 357.684,125.573 335.324,103.207 312.964,80.844 286.456,66.139 255.817,59.096 V 18.271 C 255.817,13.322 254,9.04 250.385,5.424 246.775,1.807 242.488,0 237.539,0 h -36.543 c -4.948,0 -9.231,1.807 -12.847,5.424 -3.617,3.615 -5.426,7.898 -5.426,12.847 V 59.096 C 152.079,66.139 125.577,80.844 103.211,103.207 80.847,125.569 66.144,152.076 59.1,182.72 H 18.275 c -4.952,0 -9.235,1.809 -12.851,5.426 C 1.807,191.761 0,196.044 0,200.992 v 36.547 c 0,4.948 1.807,9.236 5.424,12.847 3.619,3.614 7.902,5.428 12.851,5.428 H 59.1 c 7.044,30.642 21.748,57.146 44.111,79.511 22.362,22.367 48.869,37.062 79.512,44.111 v 40.826 c 0,4.948 1.809,9.233 5.426,12.847 3.616,3.614 7.898,5.421 12.847,5.421 h 36.543 c 4.949,0 9.236,-1.807 12.847,-5.421 3.614,-3.613 5.432,-7.898 5.432,-12.847 v -40.826 c 30.639,-7.05 57.143,-21.744 79.507,-44.111 22.367,-22.367 37.062,-48.869 44.111,-79.511 h 40.826 c 4.949,0 9.233,-1.813 12.848,-5.428 3.613,-3.61 5.42,-7.898 5.42,-12.847 v -36.547 c -10e-4,-4.948 -1.803,-9.231 -5.421,-12.846 z m -135.333,62.24 c 3.62,3.614 7.905,5.428 12.847,5.428 h 31.128 c -6.092,20.554 -16.796,38.492 -32.12,53.817 -15.324,15.317 -33.264,26.028 -53.813,32.12 v -31.125 c 0,-4.944 -1.817,-9.229 -5.432,-12.843 -3.61,-3.621 -7.897,-5.428 -12.847,-5.428 h -36.543 c -4.948,0 -9.231,1.807 -12.847,5.428 -3.617,3.613 -5.426,7.898 -5.426,12.843 v 31.125 c -20.555,-6.092 -38.494,-16.803 -53.818,-32.12 -15.325,-15.325 -26.029,-33.264 -32.121,-53.817 h 31.12 c 4.95,0 9.233,-1.813 12.85,-5.428 3.615,-3.61 5.424,-7.898 5.424,-12.847 v -36.547 c 0,-4.948 -1.809,-9.231 -5.424,-12.847 -3.621,-3.617 -7.903,-5.426 -12.85,-5.426 h -31.12 c 6.091,-20.556 16.796,-38.494 32.121,-53.815 15.324,-15.324 33.263,-26.029 53.818,-32.12 v 31.123 c 0,4.947 1.809,9.229 5.426,12.847 3.616,3.616 7.898,5.424 12.847,5.424 h 36.543 c 4.949,0 9.236,-1.809 12.847,-5.424 3.614,-3.617 5.432,-7.9 5.432,-12.847 V 96.784 c 20.55,6.091 38.489,16.796 53.813,32.12 15.324,15.321 26.028,33.26 32.12,53.815 h -31.128 c -4.941,0 -9.227,1.809 -12.847,5.426 -3.614,3.615 -5.421,7.898 -5.421,12.847 v 36.547 c 0,4.948 1.807,9.236 5.421,12.847 z"
       id="path3904"
       inkscape:connector-curvature="0"
       style="fill:#aa0000" /></g><g
     id="g3906"
     transform="translate(0,-238.529)" /><g
     id="g3908"
     transform="translate(0,-238.529)" /><g
     id="g3910"
     transform="translate(0,-238.529)" /><g
     id="g3912"
     transform="translate(0,-238.529)" /><g
     id="g3914"
     transform="translate(0,-238.529)" /><g
     id="g3916"
     transform="translate(0,-238.529)" /><g
     id="g3918"
     transform="translate(0,-238.529)" /><g
     id="g3920"
     transform="translate(0,-238.529)" /><g
     id="g3922"
     transform="translate(0,-238.529)" /><g
     id="g3924"
     transform="translate(0,-238.529)" /><g
     id="g3926"
     transform="translate(0,-238.529)" /><g
     id="g3928"
     transform="translate(0,-238.529)" /><g
     id="g3930"
     transform="translate(0,-238.529)" /><g
     id="g3932"
     transform="translate(0,-238.529)" /><g
     id="g3934"
     transform="translate(0,-238.529)" /><g
     style="font-size:148.26876831px;font-style:normal;font-variant:normal;font-weight:bold;font-stretch:normal;line-height:125%;letter-spacing:0px;word-spacing:0px;fill:#aa0000;fill-opacity:1;stroke:#aa0000;stroke-width:5.0999999;stroke-linejoin:round;stroke-miterlimit:4;stroke-opacity:1;stroke-dasharray:none;font-family:PT Mono;-inkscape-font-specification:PT Mono Bold"
     id="text3950"
     transform="translate(0,-3.8062284)"><path
       d="m 82.693735,127.25704 -36.858067,0 -9.432299,27.91249 -16.877164,0 34.667975,-94.954735 21.015542,0 34.514578,94.954735 -17.950949,0 -12.272862,-31.03067 m -1.607984,-7.54706 -12.960457,-46.236822 -1.380582,0 -12.807058,46.236822"
       style="stroke:#aa0000;stroke-width:5.0999999;stroke-linejoin:round;stroke-miterlimit:4;stroke-opacity:1;stroke-dasharray:none;font-family:PT Mono;-inkscape-font-specification:PT Mono Bold"
       id="path4468"
       inkscape:connector-curvature="0"
       sodipodi:nodetypes="ccccccccccccc" /></g><rect
     style="fill:#aa0000;fill-opacity:0;stroke:#000000;stroke-width:2;stroke-linecap:round;stroke-linejoin:miter;stroke-miterlimit:4;stroke-opacity:1;stroke-dasharray:none"
     id="rect3954"
     width="190.65744"
     height="192.73357"
     x="4.49827"
     y="3.8062284"
     ry="21.799309" /></svg>